<svg width="17" height="17" viewBox="0 0 17 17" fill="none" xmlns="http://www.w3.org/2000/svg">
<path d="M8.07227 2.29346C9.90893 2.29346 11.7089 2.44813 13.4609 2.74546C13.8163 2.80546 14.0723 3.11613 14.0723 3.47613V4.17213C14.0723 4.36911 14.0335 4.56416 13.9581 4.74615C13.8827 4.92814 13.7722 5.0935 13.6329 5.23279L10.0116 8.85413C9.87231 8.99341 9.76182 9.15878 9.68644 9.34076C9.61106 9.52275 9.57226 9.71781 9.57227 9.91479V11.8661C9.57232 12.1448 9.49475 12.4179 9.34827 12.655C9.20179 12.892 8.99217 13.0835 8.74293 13.2081L6.57227 14.2935V9.91479C6.57227 9.71781 6.53347 9.52275 6.45809 9.34076C6.38271 9.15878 6.27222 8.99341 6.13293 8.85413L2.5116 5.23279C2.37231 5.0935 2.26182 4.92814 2.18644 4.74615C2.11106 4.56416 2.07226 4.36911 2.07227 4.17213V3.47613C2.07227 3.11613 2.32827 2.80546 2.6836 2.74546C4.46398 2.44403 6.26655 2.29283 8.07227 2.29346Z" stroke="#667085" stroke-linecap="round" stroke-linejoin="round"/>
</svg>
