<svg width="24" height="24" viewBox="0 0 24 24" fill="none" xmlns="http://www.w3.org/2000/svg">
<path d="M11.9991 7.19298C9.33898 7.19298 7.1921 9.33986 7.1921 12C7.1921 14.6602 9.33898 16.807 11.9991 16.807C14.6593 16.807 16.8062 14.6602 16.8062 12C16.8062 9.33986 14.6593 7.19298 11.9991 7.19298ZM11.9991 15.1242C10.2788 15.1242 8.87492 13.7203 8.87492 12C8.87492 10.2797 10.2788 8.8758 11.9991 8.8758C13.7194 8.8758 15.1234 10.2797 15.1234 12C15.1234 13.7203 13.7194 15.1242 11.9991 15.1242ZM17.003 5.87579C16.3819 5.87579 15.8804 6.37736 15.8804 6.99845C15.8804 7.61954 16.3819 8.12111 17.003 8.12111C17.6241 8.12111 18.1257 7.62189 18.1257 6.99845C18.1259 6.85097 18.097 6.7049 18.0406 6.56861C17.9843 6.43232 17.9016 6.30849 17.7973 6.2042C17.693 6.09992 17.5692 6.01723 17.4329 5.96088C17.2966 5.90452 17.1505 5.87561 17.003 5.87579ZM21.3694 12C21.3694 10.7063 21.3812 9.42423 21.3085 8.13283C21.2359 6.63283 20.8937 5.30158 19.7968 4.2047C18.6976 3.10548 17.3687 2.76564 15.8687 2.69298C14.5749 2.62033 13.2929 2.63204 12.0015 2.63204C10.7077 2.63204 9.4257 2.62033 8.13429 2.69298C6.63429 2.76564 5.30304 3.10783 4.20617 4.2047C3.10695 5.30392 2.7671 6.63283 2.69445 8.13283C2.62179 9.42658 2.63351 10.7086 2.63351 12C2.63351 13.2914 2.62179 14.5758 2.69445 15.8672C2.7671 17.3672 3.10929 18.6985 4.20617 19.7953C5.30538 20.8945 6.63429 21.2344 8.13429 21.307C9.42804 21.3797 10.7101 21.368 12.0015 21.368C13.2952 21.368 14.5773 21.3797 15.8687 21.307C17.3687 21.2344 18.6999 20.8922 19.7968 19.7953C20.896 18.6961 21.2359 17.3672 21.3085 15.8672C21.3835 14.5758 21.3694 13.2938 21.3694 12ZM19.3069 17.5266C19.1359 17.9531 18.9296 18.2719 18.5991 18.6C18.2687 18.9305 17.9523 19.1367 17.5257 19.3078C16.2929 19.7977 13.3655 19.6875 11.9991 19.6875C10.6327 19.6875 7.70304 19.7977 6.47023 19.3102C6.04367 19.1391 5.72492 18.9328 5.39679 18.6024C5.06632 18.2719 4.86007 17.9555 4.68898 17.5289C4.20148 16.2938 4.31163 13.3664 4.31163 12C4.31163 10.6336 4.20148 7.70392 4.68898 6.47111C4.86007 6.04454 5.06632 5.7258 5.39679 5.39767C5.72726 5.06955 6.04367 4.86095 6.47023 4.68986C7.70304 4.20236 10.6327 4.31251 11.9991 4.31251C13.3655 4.31251 16.2952 4.20236 17.528 4.68986C17.9546 4.86095 18.2734 5.0672 18.6015 5.39767C18.9319 5.72814 19.1382 6.04454 19.3093 6.47111C19.7968 7.70392 19.6866 10.6336 19.6866 12C19.6866 13.3664 19.7968 16.2938 19.3069 17.5266Z" fill="#294F74"/>
</svg>
