<svg width="16" height="17" viewBox="0 0 16 17" fill="none" xmlns="http://www.w3.org/2000/svg">
<path d="M8.79335 6.51785C9.22657 6.72469 9.60382 7.03247 9.89342 7.41534C10.183 7.79821 10.3765 8.24499 10.4576 8.71815C10.5388 9.19131 10.5052 9.67703 10.3596 10.1345C10.2141 10.592 9.96093 11.0078 9.62135 11.3472L6.62135 14.3472C6.05874 14.9098 5.29567 15.2259 4.50002 15.2259C3.70436 15.2259 2.9413 14.9098 2.37869 14.3472C1.81607 13.7846 1.5 13.0215 1.5 12.2258C1.5 11.4302 1.81607 10.6671 2.37869 10.1045L3.55002 8.93318M12.45 8.51851L13.6213 7.34718C14.184 6.78457 14.5 6.0215 14.5 5.22585C14.5 4.43019 14.184 3.66713 13.6213 3.10452C13.0587 2.5419 12.2957 2.22583 11.5 2.22583C10.7044 2.22583 9.9413 2.5419 9.37868 3.10452L6.37868 6.10451C6.03911 6.44385 5.78593 6.85972 5.64041 7.3172C5.49488 7.77467 5.46127 8.26039 5.5424 8.73355C5.62352 9.2067 5.81701 9.65348 6.10661 10.0364C6.39621 10.4192 6.77347 10.727 7.20669 10.9338" stroke="#667085" stroke-linecap="round" stroke-linejoin="round"/>
</svg>
