<svg width="24" height="24" viewBox="0 0 24 24" fill="none" xmlns="http://www.w3.org/2000/svg">
<rect x="2.43359" y="2.22021" width="19.14" height="19.14" rx="2.16325" stroke="#294F74" stroke-width="1.5"/>
<path fill-rule="evenodd" clip-rule="evenodd" d="M7.19595 8.5047C7.60224 8.5047 7.99188 8.3433 8.27916 8.05602C8.56645 7.76873 8.72784 7.37909 8.72784 6.97281C8.72784 6.56653 8.56645 6.17688 8.27916 5.8896C7.99188 5.60231 7.60224 5.44092 7.19595 5.44092C6.78967 5.44092 6.40003 5.60231 6.11274 5.8896C5.82546 6.17688 5.66406 6.56653 5.66406 6.97281C5.66406 7.37909 5.82546 7.76873 6.11274 8.05602C6.40003 8.3433 6.78967 8.5047 7.19595 8.5047ZM8.47787 18.1396V9.70586H5.91404V18.1396H8.47787ZM10.1803 9.70586H12.7441V10.8352C13.1223 10.243 13.9529 9.44563 15.4976 9.44563C17.341 9.44563 18.3422 10.6673 18.3422 12.9914C18.3422 13.1029 18.3525 13.6119 18.3525 13.6119V18.1383H15.7886V13.6131C15.7886 12.9914 15.6579 11.7697 14.276 11.7697C12.8928 11.7697 12.7761 13.3055 12.7441 14.3105V18.1383H10.1803V9.70586Z" fill="#294F74"/>
<path d="M8.47787 18.1396V9.70586H5.91404V18.1396H8.47787Z" fill="#294F74"/>
<path d="M10.1803 9.70586H12.7441V10.8352C13.1223 10.243 13.9529 9.44563 15.4976 9.44563C17.341 9.44563 18.3422 10.6673 18.3422 12.9914C18.3422 13.1029 18.3525 13.6119 18.3525 13.6119V18.1383H15.7886V13.6131C15.7886 12.9914 15.6579 11.7697 14.276 11.7697C12.8928 11.7697 12.7761 13.3055 12.7441 14.3105V18.1383H10.1803V9.70586Z" fill="#294F74"/>
<path d="M7.19595 8.5047C7.60224 8.5047 7.99188 8.3433 8.27916 8.05602C8.56645 7.76873 8.72784 7.37909 8.72784 6.97281C8.72784 6.56653 8.56645 6.17688 8.27916 5.8896C7.99188 5.60231 7.60224 5.44092 7.19595 5.44092C6.78967 5.44092 6.40003 5.60231 6.11274 5.8896C5.82546 6.17688 5.66406 6.56653 5.66406 6.97281C5.66406 7.37909 5.82546 7.76873 6.11274 8.05602C6.40003 8.3433 6.78967 8.5047 7.19595 8.5047Z" fill="#294F74"/>
</svg>
