<svg width="25" height="25" viewBox="0 0 25 25" fill="none" xmlns="http://www.w3.org/2000/svg">
<path fill-rule="evenodd" clip-rule="evenodd" d="M10.5723 4.54347C9.68584 4.54347 8.8081 4.71806 7.98915 5.05728C7.1702 5.3965 6.42609 5.8937 5.79929 6.5205C5.1725 7.14729 4.6753 7.89141 4.33608 8.71035C3.99686 9.5293 3.82227 10.407 3.82227 11.2935C3.82227 12.1799 3.99686 13.0576 4.33608 13.8766C4.6753 14.6955 5.1725 15.4396 5.79929 16.0664C6.42609 16.6932 7.1702 17.1904 7.98915 17.5297C8.8081 17.8689 9.68584 18.0435 10.5723 18.0435C12.3625 18.0435 14.0794 17.3323 15.3452 16.0664C16.6111 14.8006 17.3223 13.0837 17.3223 11.2935C17.3223 9.50326 16.6111 7.78637 15.3452 6.5205C14.0794 5.25463 12.3625 4.54347 10.5723 4.54347ZM2.32227 11.2935C2.32244 9.96856 2.64171 8.66319 3.25305 7.48777C3.8644 6.31234 4.74985 5.30145 5.8345 4.54059C6.91915 3.77973 8.17109 3.29129 9.48443 3.11659C10.7978 2.94189 12.1339 3.08607 13.3797 3.53692C14.6255 3.98778 15.7444 4.73205 16.6418 5.70679C17.5392 6.68152 18.1886 7.85804 18.5351 9.13683C18.8816 10.4156 18.9151 11.759 18.6326 13.0535C18.3501 14.3479 17.76 15.5553 16.9123 16.5735L21.6023 21.2635C21.676 21.3321 21.7351 21.4149 21.776 21.5069C21.817 21.5989 21.8391 21.6982 21.8409 21.7989C21.8426 21.8996 21.8241 21.9997 21.7864 22.0931C21.7487 22.1865 21.6925 22.2713 21.6213 22.3425C21.5501 22.4137 21.4653 22.4699 21.3719 22.5076C21.2785 22.5453 21.1784 22.5638 21.0777 22.5621C20.977 22.5603 20.8777 22.5382 20.7857 22.4972C20.6937 22.4563 20.6109 22.3972 20.5423 22.3235L15.8523 17.6335C14.6475 18.637 13.1817 19.2763 11.6266 19.4767C10.0715 19.6771 8.49149 19.4302 7.07168 18.7649C5.65187 18.0996 4.45105 17.0434 3.6099 15.7202C2.76875 14.397 2.32209 12.8614 2.32227 11.2935Z" fill="#344054"/>
</svg>
